<?xml version="1.0" encoding="UTF-8"?>
<svg width="512px" height="512px" viewBox="0 0 512 512" version="1.1" xmlns="http://www.w3.org/2000/svg">
    <g id="edit-note" stroke="none" fill="none" fill-rule="evenodd">
        <g id="Path" stroke="currentColor" stroke-linecap="round" stroke-linejoin="round">
            <path d="M384,272.365495 L384,408 C384,418.60866 379.785726,428.782816 372.284271,436.284271 C364.782816,443.785726 354.60866,448 344,448 L104,448 C81.90861,448 64,430.09139 64,408 L64,168 C64,145.90861 81.90861,128 104,128 L240.341492,128" stroke-width="32"></path>
        </g>
        <g id="edit" transform="translate(134, 49)" stroke="currentColor">
            <g id="Edit" transform="translate(38, 28)">
                <path d="M228.117651,0 C237.556708,0 246.995777,3.60082479 254.197476,10.8025158 C261.399158,18.0041888 265,27.4431241 265,36.8820828 C265,46.321077 261.399134,55.7600872 254.197476,62.9618283 L254.197476,62.9618283 L89.2417093,227.917393 C83.3767591,233.782337 76.2808208,238.269463 68.4678342,241.053783 L68.4678342,241.053783 L1.27604782,265 C0.92118832,265.013571 0.595151951,264.872262 0.361481915,264.638587 C0.127713532,264.404813 -0.0135998256,264.078624 0,263.723616 L0,263.723616 L23.9459123,196.531848 C26.7302338,188.718758 31.2174054,181.622726 37.0824249,175.757714 L37.0824249,175.757714 L202.037825,10.8025158 C209.239525,3.60082479 218.678593,0 228.117651,0 Z" id="Path" stroke-width="32"></path>
            </g>
        </g>
    </g>
</svg>