<?xml version="1.0" encoding="UTF-8" standalone="no"?>
<!-- Created with Inkscape (http://www.inkscape.org/) -->

<svg
   xmlns:dc="http://purl.org/dc/elements/1.1/"
   xmlns:cc="http://creativecommons.org/ns#"
   xmlns:rdf="http://www.w3.org/1999/02/22-rdf-syntax-ns#"
   xmlns:svg="http://www.w3.org/2000/svg"
   xmlns="http://www.w3.org/2000/svg"
   xmlns:sodipodi="http://sodipodi.sourceforge.net/DTD/sodipodi-0.dtd"
   xmlns:inkscape="http://www.inkscape.org/namespaces/inkscape"
   id="svg2"
   version="1.1"
   inkscape:version="0.48.0 r9654"
   width="226"
   height="312"
   xml:space="preserve"
   sodipodi:docname="jenkinsLogo1.svg"><metadata
     id="metadata8"><rdf:RDF><cc:Work
         rdf:about=""><dc:format>image/svg+xml</dc:format><dc:type
           rdf:resource="http://purl.org/dc/dcmitype/StillImage" /><dc:title></dc:title></cc:Work></rdf:RDF></metadata><defs
     id="defs6"><clipPath
       clipPathUnits="userSpaceOnUse"
       id="clipPath18"><path
         d="M 0,2494.84 0,0 l 1804.34,0 0,2494.84 -1804.34,0 z"
         id="path20"
         inkscape:connector-curvature="0" /></clipPath></defs><sodipodi:namedview
     pagecolor="#ffffff"
     bordercolor="#666666"
     borderopacity="1"
     objecttolerance="10"
     gridtolerance="10"
     guidetolerance="10"
     inkscape:pageopacity="0"
     inkscape:pageshadow="2"
     inkscape:window-width="1500"
     inkscape:window-height="844"
     id="namedview4"
     showgrid="false"
     inkscape:zoom="1"
     inkscape:cx="61.140884"
     inkscape:cy="172.53076"
     inkscape:window-x="2613"
     inkscape:window-y="585"
     inkscape:window-maximized="0"
     inkscape:current-layer="g10" /><g
     id="g10"
     inkscape:groupmode="layer"
     inkscape:label="ink_ext_XXXXXX"
     transform="matrix(1.25,0,0,-1.25,0,312)"><g
       id="g3393"><path
         d="m 177.718,129.264 c 0,-49.4288 -39.175,-89.4992 -87.5,-89.4992 -48.3242,0 -87.49925,40.0704 -87.49925,89.4992 0,49.43 39.17505,89.501 87.49925,89.501 48.325,0 87.5,-40.071 87.5,-89.501"
         style="fill:#d33833;fill-opacity:1;fill-rule:evenodd;stroke:#231f20;stroke-width:6px"
         id="path22"
         inkscape:connector-curvature="0" /><path
         d="m 6.28438,107.098 c 0,0 -6.33438,93.333 79.66602,96 l -5.9996,10 -46.6664,-15.667 -13.3336,-15.333 -11.66642,-22.334 -6.66719,-26 2,-17.333"
         style="fill:#ef3d3a;fill-opacity:1;fill-rule:nonzero;stroke:none"
         id="path24"
         inkscape:connector-curvature="0" /></g></g></svg>
